<svg xmlns="http://www.w3.org/2000/svg" version="1.1" xmlns:xlink="http://www.w3.org/1999/xlink" xmlns:svgjs="http://svgjs.com/svgjs" width="1920" height="1080" preserveAspectRatio="none" viewBox="0 0 1920 1080"><g mask="url(&quot;#SvgjsMask1028&quot;)" fill="none"><rect width="1920" height="1080" x="0" y="0" fill="rgba(13, 16, 23, 1)"></rect><path d="M0,860.726C158.278,865.336,264.208,703.948,395.796,615.87C524.443,529.761,694.147,487.037,764.392,349.086C835.275,209.883,818.613,36.829,765.438,-110.053C717.009,-243.824,567.331,-304.338,485.661,-420.828C390.414,-556.684,394.832,-768.454,248.723,-847.073C102.514,-925.745,-83.634,-871.582,-237.883,-810.154C-383.969,-751.977,-484.457,-627.726,-591.442,-512.488C-702.267,-393.114,-831.377,-282.945,-873.431,-125.58C-917.91,40.857,-926.985,236.741,-829.654,378.89C-734.123,518.41,-527.471,508.317,-381.25,593.237C-244.23,672.814,-158.385,856.113,0,860.726" fill="#080a0f"></path><path d="M1920 1866.9C2072.511 1865.6100000000001 2216.202 1820.5230000000001 2354.287 1755.7640000000001 2510.009 1682.733 2701.846 1626.103 2770.091 1468.224 2838.299 1310.431 2753.9120000000003 1129.961 2694.5299999999997 968.639 2644.448 832.583 2553.645 722.729 2456.172 615.405 2360.885 510.48699999999997 2262.959 410.052 2133.939 351.39099999999996 1990.663 286.24800000000005 1832.648 224.31600000000003 1679.956 262.485 1525.444 301.10900000000004 1424.806 440.37699999999995 1315.304 556.028 1200.85 676.909 1048.216 786.501 1027.417 951.6659999999999 1006.668 1116.43 1127.375 1260.019 1208.395 1404.979 1283.105 1538.65 1352.521 1679.7759999999998 1480.965 1763.152 1609.704 1846.72 1766.521 1868.1979999999999 1920 1866.9" fill="#12161f"></path></g><defs><mask id="SvgjsMask1028"><rect width="1920" height="1080" fill="#ffffff"></rect></mask></defs></svg>